<svg width="18" height="18" viewBox="0 0 18 18" fill="none" xmlns="http://www.w3.org/2000/svg">
<g clip-path="url(#clip0_70_770)">
<path d="M9 0.75C7.36831 0.75 5.77325 1.23385 4.41655 2.14038C3.05984 3.0469 2.00242 4.33537 1.378 5.84286C0.753575 7.35035 0.590197 9.00915 0.908525 10.6095C1.22685 12.2098 2.01259 13.6798 3.16637 14.8336C4.32016 15.9874 5.79017 16.7732 7.39051 17.0915C8.99085 17.4098 10.6497 17.2464 12.1571 16.622C13.6646 15.9976 14.9531 14.9402 15.8596 13.5835C16.7661 12.2268 17.25 10.6317 17.25 9C17.2474 6.81276 16.3774 4.71584 14.8308 3.16922C13.2842 1.6226 11.1872 0.75258 9 0.75ZM9 15.75C7.66498 15.75 6.35994 15.3541 5.2499 14.6124C4.13987 13.8707 3.27471 12.8165 2.76382 11.5831C2.25293 10.3497 2.11925 8.99251 2.3797 7.68314C2.64015 6.37377 3.28303 5.17103 4.22703 4.22703C5.17104 3.28302 6.37377 2.64015 7.68314 2.3797C8.99252 2.11925 10.3497 2.25292 11.5831 2.76381C12.8165 3.2747 13.8707 4.13987 14.6124 5.2499C15.3541 6.35993 15.75 7.66498 15.75 9C15.748 10.7896 15.0362 12.5053 13.7708 13.7708C12.5053 15.0362 10.7896 15.748 9 15.75ZM12.75 9C12.75 9.19891 12.671 9.38968 12.5303 9.53033C12.3897 9.67098 12.1989 9.75 12 9.75H9.75V12C9.75 12.1989 9.67099 12.3897 9.53033 12.5303C9.38968 12.671 9.19892 12.75 9 12.75C8.80109 12.75 8.61033 12.671 8.46967 12.5303C8.32902 12.3897 8.25 12.1989 8.25 12V9.75H6C5.80109 9.75 5.61033 9.67098 5.46967 9.53033C5.32902 9.38968 5.25 9.19891 5.25 9C5.25 8.80109 5.32902 8.61032 5.46967 8.46967C5.61033 8.32902 5.80109 8.25 6 8.25H8.25V6C8.25 5.80109 8.32902 5.61032 8.46967 5.46967C8.61033 5.32902 8.80109 5.25 9 5.25C9.19892 5.25 9.38968 5.32902 9.53033 5.46967C9.67099 5.61032 9.75 5.80109 9.75 6V8.25H12C12.1989 8.25 12.3897 8.32902 12.5303 8.46967C12.671 8.61032 12.75 8.80109 12.75 9Z" fill="#E3B53C"/>
</g>
<defs>
<clipPath id="clip0_70_770">
<rect width="18" height="18" fill="white"/>
</clipPath>
</defs>
</svg>
