<svg width="18" height="18" viewBox="0 0 18 18" fill="none" xmlns="http://www.w3.org/2000/svg">
<path d="M16.5 5.25H14.25V3C14.25 2.80109 14.171 2.61032 14.0303 2.46967C13.8897 2.32902 13.6989 2.25 13.5 2.25H1.5C1.30109 2.25 1.11032 2.32902 0.96967 2.46967C0.829018 2.61032 0.75 2.80109 0.75 3V12C0.75 12.1989 0.829018 12.3897 0.96967 12.5303C1.11032 12.671 1.30109 12.75 1.5 12.75H3.75V15C3.75 15.1989 3.82902 15.3897 3.96967 15.5303C4.11032 15.671 4.30109 15.75 4.5 15.75H16.5C16.6989 15.75 16.8897 15.671 17.0303 15.5303C17.171 15.3897 17.25 15.1989 17.25 15V6C17.25 5.80109 17.171 5.61032 17.0303 5.46967C16.8897 5.32902 16.6989 5.25 16.5 5.25ZM2.25 11.25V3.75H12.75V11.25H2.25ZM15.75 14.25H5.25V12.75H13.5C13.6989 12.75 13.8897 12.671 14.0303 12.5303C14.171 12.3897 14.25 12.1989 14.25 12V6.75H15.75V14.25ZM9 7.5C9 7.79667 8.91203 8.08668 8.7472 8.33335C8.58238 8.58003 8.34811 8.77229 8.07403 8.88582C7.79994 8.99935 7.49834 9.02906 7.20736 8.97118C6.91639 8.9133 6.64912 8.77044 6.43934 8.56066C6.22956 8.35088 6.0867 8.08361 6.02882 7.79264C5.97094 7.50166 6.00065 7.20006 6.11418 6.92597C6.22771 6.65189 6.41997 6.41762 6.66665 6.2528C6.91332 6.08797 7.20333 6 7.5 6C7.89782 6 8.27936 6.15804 8.56066 6.43934C8.84196 6.72064 9 7.10218 9 7.5ZM5.25 7.5C5.25 7.69891 5.17098 7.88968 5.03033 8.03033C4.88968 8.17098 4.69891 8.25 4.5 8.25H3.75C3.55109 8.25 3.36032 8.17098 3.21967 8.03033C3.07902 7.88968 3 7.69891 3 7.5C3 7.30109 3.07902 7.11032 3.21967 6.96967C3.36032 6.82902 3.55109 6.75 3.75 6.75H4.5C4.69891 6.75 4.88968 6.82902 5.03033 6.96967C5.17098 7.11032 5.25 7.30109 5.25 7.5ZM12 7.5C12 7.69891 11.921 7.88968 11.7803 8.03033C11.6397 8.17098 11.4489 8.25 11.25 8.25H10.5C10.3011 8.25 10.1103 8.17098 9.96967 8.03033C9.82902 7.88968 9.75 7.69891 9.75 7.5C9.75 7.30109 9.82902 7.11032 9.96967 6.96967C10.1103 6.82902 10.3011 6.75 10.5 6.75H11.25C11.4489 6.75 11.6397 6.82902 11.7803 6.96967C11.921 7.11032 12 7.30109 12 7.5Z" fill="#E3B53C"/>
</svg>
