<svg width="18" height="18" viewBox="0 0 18 18" fill="none" xmlns="http://www.w3.org/2000/svg">
<g filter="url(#filter0_i_44_743)">
<path d="M0.875 17.5001H16.625C16.8571 17.5001 17.0796 17.4079 17.2437 17.2438C17.4078 17.0797 17.5 16.8572 17.5 16.6251V13.1251C17.5 12.893 17.4078 12.6705 17.2437 12.5064C17.0796 12.3423 16.8571 12.2501 16.625 12.2501H15.75V7.87511H16.625C16.8571 7.87511 17.0796 7.78292 17.2437 7.61883C17.4078 7.45473 17.5 7.23217 17.5 7.00011V4.37511C17.5 4.20581 17.4509 4.04014 17.3587 3.89819C17.2664 3.75624 17.135 3.6441 16.9802 3.57536L9.10525 0.0753611C8.99341 0.0256732 8.87238 0 8.75 0C8.62762 0 8.50659 0.0256732 8.39475 0.0753611L0.51975 3.57536C0.365034 3.6441 0.23358 3.75624 0.141325 3.89819C0.0490709 4.04014 -2.14802e-05 4.20581 7.05053e-09 4.37511V7.00011C7.05053e-09 7.23217 0.0921872 7.45473 0.256282 7.61883C0.420376 7.78292 0.642936 7.87511 0.875 7.87511H1.75V12.2501H0.875C0.642936 12.2501 0.420376 12.3423 0.256282 12.5064C0.0921872 12.6705 7.05053e-09 12.893 7.05053e-09 13.1251V16.6251C7.05053e-09 16.8572 0.0921872 17.0797 0.256282 17.2438C0.420376 17.4079 0.642936 17.5001 0.875 17.5001ZM1.75 4.94386L8.75 1.83236L15.75 4.94386V6.12511H1.75V4.94386ZM14 7.87511V12.2501H11.6664V7.87511H14ZM9.91638 7.87511V12.2501H7.58362V7.87511H9.91638ZM5.83362 7.87511V12.2501H3.5V7.87511H5.83362ZM1.75 14.0001H15.75V15.7501H1.75V14.0001ZM10.5 4.37511C10.5 4.60717 10.4078 4.82973 10.2437 4.99383C10.0796 5.15792 9.85706 5.25011 9.625 5.25011H7.875C7.64294 5.25011 7.42038 5.15792 7.25628 4.99383C7.09219 4.82973 7 4.60717 7 4.37511C7 4.14305 7.09219 3.92049 7.25628 3.75639C7.42038 3.5923 7.64294 3.50011 7.875 3.50011H9.625C9.85706 3.50011 10.0796 3.5923 10.2437 3.75639C10.4078 3.92049 10.5 4.14305 10.5 4.37511Z" fill="#E3B53C"/>
</g>
<defs>
<filter id="filter0_i_44_743" x="0" y="0" width="17.5" height="17.5001" filterUnits="userSpaceOnUse" color-interpolation-filters="sRGB">
<feFlood flood-opacity="0" result="BackgroundImageFix"/>
<feBlend mode="normal" in="SourceGraphic" in2="BackgroundImageFix" result="shape"/>
<feColorMatrix in="SourceAlpha" type="matrix" values="0 0 0 0 0 0 0 0 0 0 0 0 0 0 0 0 0 0 127 0" result="hardAlpha"/>
<feOffset dy="1"/>
<feComposite in2="hardAlpha" operator="arithmetic" k2="-1" k3="1"/>
<feColorMatrix type="matrix" values="0 0 0 0 0 0 0 0 0 0 0 0 0 0 0 0 0 0 1 0"/>
<feBlend mode="normal" in2="shape" result="effect1_innerShadow_44_743"/>
</filter>
</defs>
</svg>
