<svg width="17" height="17" viewBox="0 0 17 17" fill="none" xmlns="http://www.w3.org/2000/svg">
<path d="M14.1666 2.125H2.83325C2.26967 2.125 1.72916 2.34888 1.33065 2.7474C0.932135 3.14591 0.708252 3.68641 0.708252 4.25V12.75C0.708252 13.3136 0.932135 13.8541 1.33065 14.2526C1.72916 14.6511 2.26967 14.875 2.83325 14.875H14.1666C14.7302 14.875 15.2707 14.6511 15.6692 14.2526C16.0677 13.8541 16.2916 13.3136 16.2916 12.75V4.25C16.2916 3.68641 16.0677 3.14591 15.6692 2.7474C15.2707 2.34888 14.7302 2.125 14.1666 2.125ZM14.8749 12.75C14.8749 12.9379 14.8003 13.118 14.6675 13.2509C14.5346 13.3837 14.3544 13.4583 14.1666 13.4583H2.83325C2.64539 13.4583 2.46522 13.3837 2.33238 13.2509C2.19955 13.118 2.12492 12.9379 2.12492 12.75V9.20833H14.8749V12.75ZM14.8749 7.79167H2.12492V6.375H14.8749V7.79167ZM14.8749 4.95833H2.12492V4.25C2.12492 4.06214 2.19955 3.88197 2.33238 3.74913C2.46522 3.61629 2.64539 3.54167 2.83325 3.54167H14.1666C14.3544 3.54167 14.5346 3.61629 14.6675 3.74913C14.8003 3.88197 14.8749 4.06214 14.8749 4.25V4.95833ZM3.54159 11.3333C3.54159 11.1455 3.61621 10.9653 3.74905 10.8325C3.88189 10.6996 4.06206 10.625 4.24992 10.625H6.37492C6.56278 10.625 6.74295 10.6996 6.87579 10.8325C7.00862 10.9653 7.08325 11.1455 7.08325 11.3333C7.08325 11.5212 7.00862 11.7014 6.87579 11.8342C6.74295 11.967 6.56278 12.0417 6.37492 12.0417H4.24992C4.06206 12.0417 3.88189 11.967 3.74905 11.8342C3.61621 11.7014 3.54159 11.5212 3.54159 11.3333Z" fill="#E3B53C"/>
</svg>
