<svg width="60" height="60" viewBox="0 0 60 60" fill="none" xmlns="http://www.w3.org/2000/svg">
<path fill-rule="evenodd" clip-rule="evenodd" d="M38.0998 15.5488C42.5695 16.9807 46.9474 18.5081 51.4279 20.0381C51.8895 20.1535 52.1205 20.7308 52.0051 21.1924C52.005 21.3076 51.8899 21.4229 51.7746 21.5381C53.9669 23.8458 56.2745 26.2692 58.5822 28.8076C58.928 29.0383 58.8128 29.4996 58.5822 29.7305C58.4669 29.7305 58.4662 29.8457 58.3508 29.8457C56.0433 30.7687 53.9667 31.6921 51.7746 32.7305C51.89 38.1535 52.0049 43.5769 52.1203 49C52.1203 49.4615 51.7742 49.9227 51.3127 50.0381C47.8512 51.0765 44.3895 51.9998 40.9279 52.9229C37.4664 53.8459 34.0047 54.7693 30.5432 55.6924H30.0822L19.6975 52.9229C16.2359 51.9998 12.7743 51.0765 9.31271 50.0381C8.85122 49.9227 8.50511 49.4615 8.50509 49C8.50509 46.1155 8.50496 43.3464 8.62033 40.4619C8.73571 37.8081 8.73541 35.2691 8.8508 32.6152C6.77399 31.6922 4.58203 30.7687 2.38986 29.8457C2.04374 29.6149 1.9278 29.269 2.04318 28.9229C2.04332 28.8108 2.15229 28.6986 2.15841 28.6924C4.46611 26.1539 6.7747 23.7305 8.96701 21.4229C8.73629 21.1921 8.6203 20.7309 8.73556 20.3848C8.85095 20.0386 9.08194 19.923 9.31271 19.8076C13.4132 18.3724 17.6051 16.9382 21.8069 15.584L22.6838 16.6895C19.2267 18.1116 15.7699 19.5238 12.3127 20.8457L20.3899 23.7305L30.3127 27.4229L40.3508 23.7305L48.4279 20.8457C44.7669 19.3382 41.1066 17.9296 37.4455 16.4355L38.0998 15.5488ZM29.6203 31.1152C27.8896 33.3075 26.0436 35.6153 24.1975 37.8076C23.8513 38.1538 23.3895 38.385 22.9279 38.1543C19.5818 36.7697 16.12 35.4998 12.6584 34.1152C11.8509 33.7692 11.1583 33.5385 10.3508 33.1924C10.4662 35.4999 10.4669 37.9228 10.5822 40.3457C10.5822 42.9995 10.6975 45.5387 10.6975 48.0771C13.8126 48.8848 17.0432 49.8076 20.1584 50.6152C23.1582 51.4229 26.1586 52.2304 29.1584 53.0381V48.0771L29.2746 41.6152C29.39 38.1537 29.5049 34.5767 29.6203 31.1152ZM30.8899 31.1152C31.1206 37.5767 31.2354 42.7691 31.3508 53.0381C34.3507 52.2304 37.3509 51.4229 40.3508 50.6152C43.4661 49.8076 46.6972 48.8848 49.9279 48.0771C50.0433 43.1156 50.1584 38.1539 50.1584 33.1924C49.3509 33.5384 48.6584 33.7691 47.8508 34.1152C44.5048 35.4998 41.0437 36.7697 37.5822 38.1543C37.1207 38.3851 36.6589 38.1538 36.3127 37.8076C34.4666 35.6153 32.736 33.3075 30.8899 31.1152ZM9.08224 21.5381C7.23617 24.1918 5.50532 26.6153 3.77463 28.9229C7.00522 30.0766 10.1202 31.1158 13.3508 32.2695C16.5815 33.4233 19.6973 34.6919 22.9279 35.8457C24.774 33.6535 26.6209 31.4618 28.467 29.2695L19.5822 25.8076L9.19748 21.6543L9.08224 21.5381ZM51.4279 21.5381C51.4279 21.5381 51.4281 21.6543 51.3127 21.6543L41.0432 25.6924L32.1584 29.1543C34.0045 31.3466 35.8514 33.5382 37.6975 35.7305C40.8128 34.4613 44.0439 33.3081 47.2746 32.1543C50.5053 31.0005 53.6203 29.9613 56.7356 28.9229C55.0049 26.4999 53.274 24.0765 51.4279 21.5381Z" fill="#D61721"/>
<path d="M28.7659 13.166L26.8036 15.2877C26.729 15.3683 26.7339 15.4942 26.8146 15.5688C27.8568 16.5089 27.8292 16.5631 27.9669 16.5631C28.2271 16.4592 27.7779 16.827 30.0283 14.4283C32.2551 16.6256 32.1659 16.6359 32.3183 16.6359C32.4641 16.6359 32.4261 16.5823 33.4397 15.5968C33.517 15.5195 33.5178 15.3934 33.4395 15.3154L31.24 13.1188C33.7773 10.3432 33.7712 10.4572 33.7651 10.3015C33.7594 10.1557 33.7063 10.1949 32.6809 9.22171C32.6001 9.14773 32.4747 9.1524 32.3998 9.23286L29.9774 11.8535L27.6065 9.48524C27.529 9.40777 27.403 9.40764 27.3252 9.48537C26.3422 10.4965 26.2861 10.4611 26.2861 10.6069C26.2861 10.7603 26.2804 10.6539 28.7659 13.166Z" fill="#D61721"/>
<path d="M35.0855 4.81297L34.6227 6.02477C34.5728 6.15528 34.6696 6.29478 34.8086 6.29478C34.8887 6.29478 34.9642 6.24606 34.9945 6.16677L35.4573 4.95497C35.4966 4.85236 35.4451 4.73731 35.3424 4.69805C35.2403 4.65905 35.1248 4.7101 35.0855 4.81297Z" fill="#D61721"/>
<path d="M37.2062 5.73376C37.1282 5.65628 37.0022 5.65654 36.9248 5.73453L35.9407 6.72426C35.8632 6.80226 35.8635 6.92819 35.9415 7.00567C36.0196 7.08327 36.1455 7.08278 36.2229 7.00489L37.2069 6.01517C37.2844 5.93717 37.2842 5.81124 37.2062 5.73376Z" fill="#D61721"/>
<path d="M37.2249 8.27902L38.4382 8.00784C38.5455 7.98387 38.613 7.8775 38.589 7.77023C38.5649 7.66308 38.4592 7.59467 38.3514 7.61942L37.1381 7.89059C37.0308 7.91456 36.9633 8.02093 36.9873 8.12821C37.011 8.23435 37.1163 8.30304 37.2249 8.27902Z" fill="#D61721"/>
<path d="M25.0167 20.0298C26.8127 21.1292 28.4882 21.4879 30.5753 21.2087C32.1966 20.9918 34.1499 20.291 35.4297 19.1315C36.4809 18.3003 37.3206 17.1965 37.7974 15.9529C38.592 13.8804 38.2983 11.0378 37.0831 9.04006C35.4524 6.35875 32.0476 5.08121 28.9363 5.4913C25.4567 5.35875 20.7712 9.06287 21.4788 14.7016C21.788 17.1654 22.9808 18.7836 25.0167 20.0298ZM22.5935 12.5306C22.9109 10.3638 24.0157 8.38772 25.5488 7.24459C28.9106 4.73882 34.5322 5.61192 36.7431 9.24684C37.8802 11.1162 38.1673 13.8765 37.4258 15.8103C36.6615 17.8038 34.9167 19.4241 32.8722 20.0393C31.5416 20.4391 29.719 20.5311 28.3379 20.2688C27.3242 20.0761 26.4083 19.7111 25.6162 19.1956C24.5102 18.4408 23.6705 17.416 23.1993 16.4273C22.6356 15.2444 22.4091 13.7879 22.5935 12.5306Z" fill="#D61721"/>
</svg>
