<svg width="15" height="15" viewBox="0 0 15 15" fill="none" xmlns="http://www.w3.org/2000/svg">
<path d="M14.6667 8.24984V14.2498C14.6667 14.4488 14.5964 14.6395 14.4714 14.7802C14.3464 14.9208 14.1768 14.9998 14 14.9998H0.666667C0.489856 14.9998 0.320286 14.9208 0.195262 14.7802C0.0702379 14.6395 0 14.4488 0 14.2498V8.24984C0 8.05093 0.0702379 7.86016 0.195262 7.71951C0.320286 7.57886 0.489856 7.49984 0.666667 7.49984C0.843478 7.49984 1.01305 7.57886 1.13807 7.71951C1.2631 7.86016 1.33333 8.05093 1.33333 8.24984V13.4998H13.3333V8.24984C13.3333 8.05093 13.4036 7.86016 13.5286 7.71951C13.6536 7.57886 13.8232 7.49984 14 7.49984C14.1768 7.49984 14.3464 7.57886 14.4714 7.71951C14.5964 7.86016 14.6667 8.05093 14.6667 8.24984V8.24984ZM7.33333 11.9998C7.51014 11.9998 7.67971 11.9208 7.80474 11.7802C7.92976 11.6395 8 11.4488 8 11.2498V2.56034L9.52867 4.28009C9.6544 4.41671 9.8228 4.4923 9.9976 4.4906C10.1724 4.48889 10.3396 4.41001 10.4632 4.27095C10.5868 4.1319 10.6569 3.94379 10.6585 3.74714C10.66 3.55049 10.5928 3.36104 10.4713 3.21959L7.80467 0.21959C7.67965 0.0789865 7.51011 0 7.33333 0C7.15656 0 6.98702 0.0789865 6.862 0.21959L4.19533 3.21959C4.13166 3.28878 4.08087 3.37153 4.04593 3.46304C4.01099 3.55454 3.9926 3.65295 3.99183 3.75254C3.99106 3.85212 4.00793 3.95088 4.04145 4.04306C4.07497 4.13523 4.12447 4.21897 4.18707 4.28939C4.24967 4.35981 4.3241 4.4155 4.40603 4.45321C4.48796 4.49092 4.57575 4.50989 4.66427 4.50903C4.75279 4.50816 4.84027 4.48747 4.9216 4.44817C5.00294 4.40886 5.0765 4.35172 5.138 4.28009L6.66667 2.56034V11.2498C6.66667 11.4488 6.7369 11.6395 6.86193 11.7802C6.98695 11.9208 7.15652 11.9998 7.33333 11.9998Z" fill="#E3B53C"/>
</svg>
