<svg width="18" height="18" viewBox="0 0 18 18" fill="none" xmlns="http://www.w3.org/2000/svg">
<g clip-path="url(#clip0_64_760)">
<path d="M13.5 0.75H4.5C3.90326 0.75 3.33097 0.987053 2.90901 1.40901C2.48705 1.83097 2.25 2.40326 2.25 3V16.5C2.25003 16.6483 2.29404 16.7933 2.37645 16.9166C2.45886 17.0399 2.57598 17.136 2.71301 17.1928C2.85003 17.2495 3.00081 17.2644 3.14627 17.2354C3.29174 17.2065 3.42536 17.1351 3.53025 17.0303L5.13375 15.4275L6.126 16.9155C6.18699 17.0085 6.26789 17.0867 6.36284 17.1446C6.45779 17.2024 6.56442 17.2384 6.675 17.25C6.78551 17.2617 6.89725 17.2484 7.00191 17.211C7.10657 17.1736 7.20145 17.1131 7.2795 17.034L9 15.3105L10.7198 17.0303C10.7982 17.1087 10.8932 17.1687 10.9977 17.206C11.1021 17.2433 11.2136 17.257 11.324 17.246C11.4344 17.235 11.541 17.1997 11.6361 17.1425C11.7312 17.0854 11.8125 17.0078 11.874 16.9155L12.8663 15.4275L14.4697 17.0303C14.5746 17.1351 14.7083 17.2065 14.8537 17.2354C14.9992 17.2644 15.15 17.2495 15.287 17.1928C15.424 17.136 15.5411 17.0399 15.6236 16.9166C15.706 16.7933 15.75 16.6483 15.75 16.5V3C15.75 2.40326 15.5129 1.83097 15.091 1.40901C14.669 0.987053 14.0967 0.75 13.5 0.75ZM14.25 14.6895L13.2803 13.7198C13.2023 13.6405 13.1074 13.58 13.0027 13.5426C12.898 13.5052 12.7863 13.4919 12.6757 13.5038C12.5654 13.5147 12.4589 13.55 12.3638 13.607C12.2688 13.6641 12.1875 13.7415 12.126 13.8338L11.1337 15.3225L9.53025 13.7198C9.3896 13.5791 9.19887 13.5002 9 13.5002C8.80113 13.5002 8.6104 13.5791 8.46975 13.7198L6.86625 15.3225L5.874 13.8338C5.81242 13.7415 5.73114 13.664 5.636 13.6069C5.54087 13.5498 5.43425 13.5146 5.32385 13.5037C5.21344 13.4928 5.10199 13.5065 4.99753 13.5438C4.89306 13.5812 4.79819 13.6413 4.71975 13.7198L3.75 14.6895V3C3.75 2.80109 3.82902 2.61032 3.96967 2.46967C4.11032 2.32902 4.30109 2.25 4.5 2.25H13.5C13.6989 2.25 13.8897 2.32902 14.0303 2.46967C14.171 2.61032 14.25 2.80109 14.25 3V14.6895ZM9.75 8.25C9.75 8.44891 9.67098 8.63968 9.53033 8.78033C9.38968 8.92098 9.19891 9 9 9H6C5.80109 9 5.61032 8.92098 5.46967 8.78033C5.32902 8.63968 5.25 8.44891 5.25 8.25C5.25 8.05109 5.32902 7.86032 5.46967 7.71967C5.61032 7.57902 5.80109 7.5 6 7.5H9C9.19891 7.5 9.38968 7.57902 9.53033 7.71967C9.67098 7.86032 9.75 8.05109 9.75 8.25ZM9.75 11.25C9.75 11.4489 9.67098 11.6397 9.53033 11.7803C9.38968 11.921 9.19891 12 9 12H6C5.80109 12 5.61032 11.921 5.46967 11.7803C5.32902 11.6397 5.25 11.4489 5.25 11.25C5.25 11.0511 5.32902 10.8603 5.46967 10.7197C5.61032 10.579 5.80109 10.5 6 10.5H9C9.19891 10.5 9.38968 10.579 9.53033 10.7197C9.67098 10.8603 9.75 11.0511 9.75 11.25ZM12.75 8.25C12.75 8.44891 12.671 8.63968 12.5303 8.78033C12.3897 8.92098 12.1989 9 12 9H11.25C11.0511 9 10.8603 8.92098 10.7197 8.78033C10.579 8.63968 10.5 8.44891 10.5 8.25C10.5 8.05109 10.579 7.86032 10.7197 7.71967C10.8603 7.57902 11.0511 7.5 11.25 7.5H12C12.1989 7.5 12.3897 7.57902 12.5303 7.71967C12.671 7.86032 12.75 8.05109 12.75 8.25ZM12.75 11.25C12.75 11.4489 12.671 11.6397 12.5303 11.7803C12.3897 11.921 12.1989 12 12 12H11.25C11.0511 12 10.8603 11.921 10.7197 11.7803C10.579 11.6397 10.5 11.4489 10.5 11.25C10.5 11.0511 10.579 10.8603 10.7197 10.7197C10.8603 10.579 11.0511 10.5 11.25 10.5H12C12.1989 10.5 12.3897 10.579 12.5303 10.7197C12.671 10.8603 12.75 11.0511 12.75 11.25ZM12.75 4.5C12.75 4.69891 12.671 4.88968 12.5303 5.03033C12.3897 5.17098 12.1989 5.25 12 5.25H6C5.80109 5.25 5.61032 5.17098 5.46967 5.03033C5.32902 4.88968 5.25 4.69891 5.25 4.5C5.25 4.30109 5.32902 4.11032 5.46967 3.96967C5.61032 3.82902 5.80109 3.75 6 3.75H12C12.1989 3.75 12.3897 3.82902 12.5303 3.96967C12.671 4.11032 12.75 4.30109 12.75 4.5Z" fill="#E3B53C"/>
</g>
<defs>
<clipPath id="clip0_64_760">
<rect width="18" height="18" fill="white"/>
</clipPath>
</defs>
</svg>
