<svg width="18" height="19" viewBox="0 0 18 19" fill="none" xmlns="http://www.w3.org/2000/svg">
<path d="M9.00008 17.4167C9.19898 17.4166 9.38971 17.3332 9.53033 17.1847L16.2803 10.0597C16.3569 9.97894 16.4159 9.88165 16.4535 9.77452C16.491 9.66738 16.5061 9.55294 16.4978 9.43904L16.0156 2.82308C16.002 2.63461 15.9249 2.45751 15.7984 2.32378C15.6718 2.19005 15.5041 2.10853 15.3256 2.09396L9.05783 1.58333C8.94993 1.57456 8.84152 1.59053 8.74002 1.63016C8.63852 1.66979 8.54635 1.73214 8.46983 1.81292L1.71983 8.93792C1.57923 9.08638 1.50024 9.2877 1.50024 9.49763C1.50024 9.70755 1.57923 9.90888 1.71983 10.0573L8.46983 17.1823C8.53928 17.2563 8.62186 17.315 8.71284 17.3553C8.80383 17.3955 8.90144 17.4163 9.00008 17.4167ZM9.28658 3.192L14.5696 3.62108L14.9761 9.19758L9.00008 15.5056L3.31058 9.5L9.28658 3.192ZM10.8323 7.56596C10.6225 7.34454 10.4796 7.06242 10.4217 6.75527C10.3638 6.44812 10.3935 6.12974 10.507 5.8404C10.6205 5.55105 10.8127 5.30374 11.0594 5.12974C11.3061 4.95574 11.5961 4.86287 11.8928 4.86287C12.1895 4.86287 12.4796 4.95574 12.7262 5.12974C12.9729 5.30374 13.1652 5.55105 13.2787 5.8404C13.3922 6.12974 13.4219 6.44812 13.364 6.75527C13.3061 7.06242 13.1632 7.34454 12.9533 7.56596C12.672 7.86279 12.2906 8.02954 11.8928 8.02954C11.4951 8.02954 11.1136 7.86279 10.8323 7.56596Z" fill="#E3B53C"/>
</svg>
