<svg width="13" height="14" viewBox="0 0 13 14" fill="none" xmlns="http://www.w3.org/2000/svg">
<path d="M0.875 6.125C1.10706 6.125 1.32962 6.21719 1.49372 6.38128C1.65781 6.54538 1.75 6.76794 1.75 7V13.125C1.75 13.3571 1.65781 13.5796 1.49372 13.7437C1.32962 13.9078 1.10706 14 0.875 14C0.642936 14 0.420376 13.9078 0.256282 13.7437C0.0921874 13.5796 0 13.3571 0 13.125V7C0 6.76794 0.0921874 6.54538 0.256282 6.38128C0.420376 6.21719 0.642936 6.125 0.875 6.125ZM5.25 0.875V13.125C5.25 13.3571 5.34219 13.5796 5.50628 13.7437C5.67038 13.9078 5.89294 14 6.125 14C6.35706 14 6.57962 13.9078 6.74372 13.7437C6.90781 13.5796 7 13.3571 7 13.125V0.875C7 0.642936 6.90781 0.420376 6.74372 0.256282C6.57962 0.0921874 6.35706 0 6.125 0C5.89294 0 5.67038 0.0921874 5.50628 0.256282C5.34219 0.420376 5.25 0.642936 5.25 0.875ZM10.5 3.9375V13.125C10.5 13.3571 10.5922 13.5796 10.7563 13.7437C10.9204 13.9078 11.1429 14 11.375 14C11.6071 14 11.8296 13.9078 11.9937 13.7437C12.1578 13.5796 12.25 13.3571 12.25 13.125V3.9375C12.25 3.70544 12.1578 3.48288 11.9937 3.31878C11.8296 3.15469 11.6071 3.0625 11.375 3.0625C11.1429 3.0625 10.9204 3.15469 10.7563 3.31878C10.5922 3.48288 10.5 3.70544 10.5 3.9375Z" fill="#E3B53C"/>
</svg>
