<svg width="18" height="18" viewBox="0 0 18 18" fill="none" xmlns="http://www.w3.org/2000/svg">
<path d="M9 5.72727C8.35272 5.72727 7.71997 5.91921 7.18177 6.27883C6.64357 6.63844 6.2241 7.14957 5.97639 7.74758C5.72869 8.34559 5.66388 9.00363 5.79016 9.63848C5.91644 10.2733 6.22813 10.8565 6.68583 11.3142C7.14353 11.7719 7.72668 12.0836 8.36152 12.2098C8.99637 12.3361 9.65441 12.2713 10.2524 12.0236C10.8504 11.7759 11.3616 11.3564 11.7212 10.8182C12.0808 10.28 12.2727 9.64728 12.2727 9C12.2727 8.13202 11.9279 7.29959 11.3142 6.68583C10.7004 6.07208 9.86798 5.72727 9 5.72727ZM9 10.6364C8.67636 10.6364 8.35998 10.5404 8.09089 10.3606C7.82179 10.1808 7.61205 9.92522 7.4882 9.62621C7.36434 9.3272 7.33194 8.99819 7.39508 8.68076C7.45822 8.36334 7.61407 8.07177 7.84292 7.84292C8.07177 7.61407 8.36334 7.45822 8.68076 7.39508C8.99819 7.33194 9.3272 7.36434 9.62621 7.4882C9.92522 7.61205 10.1808 7.82179 10.3606 8.09089C10.5404 8.35998 10.6364 8.67636 10.6364 9C10.6364 9.43399 10.464 9.85021 10.1571 10.1571C9.85021 10.464 9.43399 10.6364 9 10.6364ZM16.3555 6.54545H15.0668C15.0603 6.52745 15.0374 6.45791 15.0292 6.43991L15.9374 5.53173C16.2454 5.22323 16.4185 4.80507 16.4185 4.36909C16.4185 3.93311 16.2454 3.51495 15.9374 3.20645L14.7919 2.061C14.6394 1.90806 14.4582 1.78681 14.2587 1.70424C14.0591 1.62167 13.8452 1.57942 13.6293 1.57991C13.4136 1.57963 13.2 1.62199 13.0007 1.70456C12.8015 1.78712 12.6205 1.90826 12.4683 2.061L11.5118 2.95527L11.4545 2.92909V1.64373C11.4541 1.20778 11.2807 0.789814 10.9723 0.481626C10.664 0.173438 10.246 0.000216568 9.81 0H8.19C7.75405 0.000216568 7.336 0.173438 7.02766 0.481626C6.71932 0.789814 6.54589 1.20778 6.54545 1.64373V2.91764L6.47509 2.95773L6.43991 2.97082L5.535 2.06345C5.3827 1.91046 5.20164 1.78912 5.00224 1.70641C4.80284 1.6237 4.58905 1.58127 4.37318 1.58155C4.15723 1.58105 3.94332 1.62331 3.74378 1.70588C3.54423 1.78845 3.36301 1.9097 3.21055 2.06264L2.06509 3.20809C1.75702 3.51659 1.58399 3.93475 1.58399 4.37073C1.58399 4.80671 1.75702 5.22486 2.06509 5.53336L2.96509 6.46855C2.95445 6.49227 2.93809 6.52009 2.92991 6.54464H1.64455C1.20845 6.54485 0.790281 6.71819 0.481916 7.02655C0.173551 7.33492 0.0002168 7.75309 0 8.18918V9.81082C0.000433514 10.2468 0.173863 10.6647 0.482204 10.9729C0.790546 11.2811 1.20859 11.4543 1.64455 11.4545H2.93318C2.93973 11.4725 2.96264 11.5421 2.97082 11.5601L2.06264 12.4683C1.75457 12.7768 1.58153 13.1949 1.58153 13.6309C1.58153 14.0669 1.75457 14.485 2.06264 14.7935L3.20809 15.939C3.52142 16.2378 3.93776 16.4045 4.37073 16.4045C4.80369 16.4045 5.22004 16.2378 5.53336 15.939L6.44564 15.0267C6.46364 15.0357 6.52745 15.0652 6.54464 15.0725V16.3579C6.5455 16.7937 6.71924 17.2114 7.02771 17.5192C7.33618 17.8271 7.75419 18 8.19 18H9.81C10.246 17.9998 10.664 17.8266 10.9723 17.5184C11.2807 17.2102 11.4541 16.7922 11.4545 16.3563V15.0824L11.5601 15.0292L12.4675 15.9365C12.7807 16.2358 13.1973 16.4028 13.6305 16.4028C14.0637 16.4028 14.4803 16.2358 14.7935 15.9365L15.939 14.7911C16.2471 14.4826 16.4201 14.0644 16.4201 13.6285C16.4201 13.1925 16.2471 12.7743 15.939 12.4658L15.039 11.5306C15.0496 11.5069 15.066 11.4791 15.0742 11.4545H16.3555C16.7914 11.4543 17.2095 11.2811 17.5178 10.9729C17.8261 10.6647 17.9996 10.2468 18 9.81082V8.18918C17.9996 7.75323 17.8261 7.33527 17.5178 7.02708C17.2095 6.71889 16.7914 6.54567 16.3555 6.54545ZM16.3555 9.81818H15.0717C14.7406 9.82791 14.4194 9.93315 14.1467 10.1212C13.874 10.3093 13.6615 10.5722 13.5347 10.8782C13.408 11.1843 13.3724 11.5204 13.4323 11.8462C13.4922 12.172 13.645 12.4736 13.8723 12.7145L14.7796 13.6342L13.6227 14.7796L12.7145 13.8723C12.4736 13.645 12.1722 13.4922 11.8464 13.4323C11.5207 13.3724 11.1846 13.4079 10.8786 13.5346C10.5726 13.6612 10.3097 13.8736 10.1215 14.1462C9.93341 14.4187 9.82806 14.7399 9.81818 15.0709L9.81 16.3636L8.18182 16.3563V15.0709C8.17775 14.7369 8.0737 14.4118 7.8831 14.1375C7.69249 13.8631 7.42407 13.6522 7.11245 13.5319C6.90085 13.4439 6.674 13.3983 6.44482 13.3977C6.22987 13.3968 6.01685 13.4382 5.81793 13.5197C5.619 13.6011 5.43806 13.7209 5.28545 13.8723L4.36582 14.7796L3.22036 13.6227L4.12691 12.7162C4.35468 12.4753 4.50791 12.1737 4.56812 11.8477C4.62833 11.5217 4.59295 11.1853 4.46625 10.8789C4.33955 10.5726 4.12693 10.3095 3.85404 10.1213C3.58115 9.93303 3.25964 9.82778 2.92827 9.81818L1.63636 9.81082L1.64455 8.18182H2.92827C3.25938 8.17209 3.58063 8.06685 3.85331 7.87878C4.126 7.69071 4.33851 7.42783 4.46525 7.12178C4.592 6.81573 4.62757 6.47957 4.56768 6.15377C4.5078 5.82797 4.35502 5.52643 4.12773 5.28545L3.22036 4.36582L4.37727 3.22036L5.28545 4.12773C5.52126 4.3586 5.82021 4.51438 6.14452 4.5754C6.46884 4.63642 6.80396 4.59993 7.10755 4.47055L7.12227 4.46482C7.43173 4.34344 7.6979 4.13243 7.88667 3.85883C8.07544 3.58522 8.17821 3.26148 8.18182 2.92909L8.19 1.63636L9.81818 1.64373V2.92909C9.81811 3.25164 9.91337 3.56701 10.092 3.83559C10.2706 4.10417 10.5246 4.31397 10.8221 4.43864C10.8434 4.44927 10.8687 4.46073 10.8933 4.47055C11.1967 4.59997 11.5317 4.63648 11.8559 4.57546C12.1801 4.51444 12.4789 4.35862 12.7145 4.12773L13.6342 3.22036L14.7796 4.37727L13.8731 5.28382C13.6453 5.52468 13.4921 5.82629 13.4319 6.15228C13.3717 6.47827 13.407 6.81472 13.5337 7.12106C13.6605 7.42739 13.8731 7.69053 14.146 7.87875C14.4188 8.06696 14.7404 8.17222 15.0717 8.18182H16.3555L16.3636 8.18918L16.3555 9.81818Z" fill="#E3B53C"/>
</svg>
