<svg width="18" height="18" viewBox="0 0 18 18" fill="none" xmlns="http://www.w3.org/2000/svg">
<g clip-path="url(#clip0_64_758)">
<path d="M17.1968 4.971L15.6968 1.221C15.641 1.08185 15.5448 0.962605 15.4206 0.878651C15.2964 0.794696 15.1499 0.749885 15 0.75H3C2.85009 0.749885 2.70359 0.794696 2.5794 0.878651C2.4552 0.962605 2.35902 1.08185 2.30325 1.221L0.80325 4.971C0.768102 5.05982 0.750035 5.15448 0.75 5.25V16.5C0.75 16.6989 0.829018 16.8897 0.96967 17.0303C1.11032 17.171 1.30109 17.25 1.5 17.25H16.5C16.6989 17.25 16.8897 17.171 17.0303 17.0303C17.171 16.8897 17.25 16.6989 17.25 16.5V5.25C17.25 5.15448 17.2319 5.05982 17.1968 4.971V4.971ZM3.50775 2.25H14.4922L15.3923 4.5H2.60775L3.50775 2.25ZM2.25 15.75V6H15.75V15.75H2.25ZM11.7802 9.96975C11.8519 10.0389 11.909 10.1217 11.9483 10.2132C11.9876 10.3047 12.0083 10.4031 12.0092 10.5027C12.0101 10.6023 11.9911 10.701 11.9534 10.7932C11.9157 10.8854 11.86 10.9691 11.7895 11.0395C11.7191 11.11 11.6354 11.1657 11.5432 11.2034C11.451 11.2411 11.3523 11.2601 11.2527 11.2592C11.1531 11.2583 11.0547 11.2376 10.9632 11.1983C10.8717 11.159 10.7889 11.1019 10.7198 11.0302L9.75 10.0605V13.5C9.75 13.6989 9.67098 13.8897 9.53033 14.0303C9.38968 14.171 9.19891 14.25 9 14.25C8.80109 14.25 8.61032 14.171 8.46967 14.0303C8.32902 13.8897 8.25 13.6989 8.25 13.5V10.0605L7.28025 11.0302C7.1388 11.1669 6.94935 11.2425 6.7527 11.2408C6.55605 11.239 6.36794 11.1602 6.22889 11.0211C6.08983 10.8821 6.01095 10.6939 6.00924 10.4973C6.00754 10.3007 6.08313 10.1112 6.21975 9.96975L8.46975 7.71975C8.6104 7.57915 8.80113 7.50016 9 7.50016C9.19887 7.50016 9.3896 7.57915 9.53025 7.71975L11.7802 9.96975Z" fill="#E3B53C"/>
</g>
<defs>
<clipPath id="clip0_64_758">
<rect width="18" height="18" fill="white"/>
</clipPath>
</defs>
</svg>
