<svg width="18" height="18" viewBox="0 0 18 18" fill="none" xmlns="http://www.w3.org/2000/svg">
<path d="M1.5 8.25H6C6.19891 8.25 6.38968 8.17098 6.53033 8.03033C6.67098 7.88968 6.75 7.69891 6.75 7.5V3C6.75 2.80109 6.67098 2.61032 6.53033 2.46967C6.38968 2.32902 6.19891 2.25 6 2.25H1.5C1.30109 2.25 1.11032 2.32902 0.96967 2.46967C0.829018 2.61032 0.75 2.80109 0.75 3V7.5C0.75 7.69891 0.829018 7.88968 0.96967 8.03033C1.11032 8.17098 1.30109 8.25 1.5 8.25ZM2.25 3.75H5.25V6.75H2.25V3.75ZM6 15.75C6.19891 15.75 6.38968 15.671 6.53033 15.5303C6.67098 15.3897 6.75 15.1989 6.75 15V10.5C6.75 10.3011 6.67098 10.1103 6.53033 9.96967C6.38968 9.82902 6.19891 9.75 6 9.75H1.5C1.30109 9.75 1.11032 9.82902 0.96967 9.96967C0.829018 10.1103 0.75 10.3011 0.75 10.5V15C0.75 15.1989 0.829018 15.3897 0.96967 15.5303C1.11032 15.671 1.30109 15.75 1.5 15.75H6ZM2.25 11.25H5.25V14.25H2.25V11.25ZM17.25 5.25C17.25 5.44891 17.171 5.63968 17.0303 5.78033C16.8897 5.92098 16.6989 6 16.5 6H9C8.80109 6 8.61032 5.92098 8.46967 5.78033C8.32902 5.63968 8.25 5.44891 8.25 5.25C8.25 5.05109 8.32902 4.86032 8.46967 4.71967C8.61032 4.57902 8.80109 4.5 9 4.5H16.5C16.6989 4.5 16.8897 4.57902 17.0303 4.71967C17.171 4.86032 17.25 5.05109 17.25 5.25ZM17.25 12.75C17.25 12.9489 17.171 13.1397 17.0303 13.2803C16.8897 13.421 16.6989 13.5 16.5 13.5H9C8.80109 13.5 8.61032 13.421 8.46967 13.2803C8.32902 13.1397 8.25 12.9489 8.25 12.75C8.25 12.5511 8.32902 12.3603 8.46967 12.2197C8.61032 12.079 8.80109 12 9 12H16.5C16.6989 12 16.8897 12.079 17.0303 12.2197C17.171 12.3603 17.25 12.5511 17.25 12.75Z" fill="#E3B53C"/>
</svg>
